# xmcd CD database file
#
# Track frame offsets:
#	150
#	17544
#	37547
#	55055
#	72876
#	86467
#	100976
#	116241
#	133310
#	146958
#	162911
#	182314
#	202386
#	223430
#	253989
#	274524
#	286464
#	306079
#	321465
#
# Disc length: 4557 seconds
#
# Revision: 1
# Processed by: cddbd v1.5.1PL2 Copyright (c) Steve Scherf et al.
# Submitted via: CDex 1.51
#
DISCID=2911cb13
DTITLE=Allison Moorer - The Definitive Collection
DYEAR=2005
DGENRE=Country
TTITLE0=A Soft Place To Fall
TTITLE1=Long Black Train
TTITLE2=Alabama Song
TTITLE3=Set You Free
TTITLE4=Easier To Forget
TTITLE5=The Hardest Part
TTITLE6=Is It Worth It?
TTITLE7=Send Down An Angel
TTITLE8=I Ain't The One
TTITLE9=Moonshiner
TTITLE10=Tumbling Down
TTITLE11=Hey Jezebel
TTITLE12=Steal The Sun
TTITLE13=Dying Breed
TTITLE14=Storms Never Lost
TTITLE15=Don't Cry No Tears
TTITLE16=Let Go
TTITLE17=I'll Break Before I Bend
TTITLE18=Is Heaven Good Enough For You
EXTD=YEAR: 2005
EXTT0=
EXTT1=
EXTT2=
EXTT3=
EXTT4=
EXTT5=
EXTT6=
EXTT7=
EXTT8=
EXTT9=
EXTT10=
EXTT11=
EXTT12=
EXTT13=
EXTT14=
EXTT15=
EXTT16=
EXTT17=
EXTT18=
PLAYORDER=
